<?xml version="1.0" encoding="utf-8"?>
<!-- Generator: Adobe Illustrator 23.0.2, SVG Export Plug-In . SVG Version: 6.00 Build 0)  -->
<svg version="1.1" xmlns="http://www.w3.org/2000/svg" xmlns:xlink="http://www.w3.org/1999/xlink" x="0px" y="0px"
	 viewBox="0 0 800 353.36" style="enable-background:new 0 0 800 353.36;" xml:space="preserve">
<style type="text/css">
	.st0{fill:#52BBE7;}
	.st1{opacity:0.2;clip-path:url(#SVGID_2_);fill:#FFFFFF;}
	.st2{opacity:0.4;clip-path:url(#SVGID_2_);fill:#FFFFFF;}
	.st3{opacity:0.6;clip-path:url(#SVGID_2_);fill:#FFFFFF;}
	.st4{opacity:0.8;clip-path:url(#SVGID_2_);fill:#FFFFFF;}
</style>
<g id="Layer_2">
	<rect class="st0" width="800" height="353.36"/>
</g>
<g id="Layer_3">
	<g>
		<defs>
			<rect id="SVGID_1_" width="800" height="353.36"/>
		</defs>
		<clipPath id="SVGID_2_">
			<use xlink:href="#SVGID_1_"  style="overflow:visible;"/>
		</clipPath>
		<path class="st1" d="M800,190.47c0-15.51-12.57-28.09-28.09-28.09c-4.74,0-9.21,1.18-13.13,3.26c0.12-1.07,0.19-2.16,0.19-3.26
			c0-13.37-9.35-24.55-21.86-27.38c-2.9-21.16-21.03-37.47-42.99-37.47c-16.24,0-30.39,8.93-37.83,22.14
			c-4.92-4.25-11.33-6.82-18.34-6.82c-6.26,0-12.04,2.05-16.71,5.51c-5.07-7.34-13.53-12.15-23.12-12.15
			c-11.34,0-21.11,6.73-25.54,16.41c-4.35-2-9.19-3.13-14.29-3.13c-18.9,0-34.21,15.32-34.21,34.21c0,0,0,0.01,0,0.01
			c-0.17,0-0.34-0.01-0.51-0.01c-10.96,0-20.45,6.28-25.08,15.44c-0.99-0.07-2-0.12-3.01-0.12c-17.62,0-32.64,11.16-38.37,26.8
			c-13.79,1.79-24.44,13.57-24.44,27.84c0,0.13,0.01,0.25,0.01,0.38c-1.5-0.25-3.04-0.38-4.61-0.38c-11.99,0-22.21,7.51-26.24,18.08
			c-5.9-3.06-12.6-4.8-19.71-4.8c-13.12,0-24.86,5.9-32.73,15.18c-1.11-0.82-2.29-1.56-3.52-2.21c0.08-1.08,0.14-2.16,0.14-3.26
			c0-22.84-18.52-41.36-41.36-41.36c-3.24,0-6.39,0.38-9.41,1.09c-4.54-9.41-14.17-15.9-25.31-15.9c-0.69,0-1.37,0.03-2.04,0.08
			c0-0.03,0-0.05,0-0.08c0-20.31-16.46-36.77-36.77-36.77c-4.21,0-8.26,0.72-12.02,2.02c-4.74-8.8-14.04-14.79-24.74-14.79
			c-7.95,0-15.11,3.3-20.22,8.61c-2.01-13.54-13.68-23.93-27.78-23.93c-3.98,0-7.76,0.83-11.19,2.33
			c-7.49-9.21-18.91-15.09-31.7-15.09c-13.47,0-25.41,6.52-32.86,16.58c-4.15-2.42-8.97-3.81-14.12-3.81
			c-5.1,0-9.89,1.37-14.01,3.75c-4.92-15.78-19.65-27.24-37.05-27.24c-8.26,0-15.92,2.59-22.21,6.99
			c-5.11-7.02-13.38-11.59-22.72-11.59c-15.51,0-28.09,12.57-28.09,28.09v374.81h895.68V218.55
			C828.09,203.04,815.51,190.47,800,190.47z"/>
		<path class="st2" d="M785.36,103.5c-29.7,0-53.78,24.08-53.78,53.78c0,2.79,0.21,5.52,0.62,8.2c-5.34,0.14-10.41,1.33-15.02,3.37
			c-3.64-18.24-19.74-31.99-39.05-31.99c-5.08,0-9.92,0.96-14.39,2.69c-3.6-22.09-22.76-38.96-45.87-38.96
			c-8.71,0-16.85,2.4-23.82,6.57c-4.54-17-20.04-29.53-38.48-29.53c-15.9,0-29.63,9.32-36.01,22.8c-6.54-4.7-14.55-7.48-23.22-7.48
			c-22,0-39.83,17.83-39.83,39.83c0,0.36,0.02,0.72,0.03,1.08c-2.96-0.7-6.04-1.08-9.22-1.08c-9.78,0-18.73,3.53-25.66,9.38
			c-8.13-3.41-17.06-5.29-26.42-5.29c-25.17,0-47.16,13.6-59.04,33.85c-4.68-5.28-10.73-9.3-17.6-11.51
			c0.03-0.64,0.05-1.27,0.05-1.91c0-24.82-20.12-44.94-44.94-44.94c-1.84,0-3.66,0.12-5.44,0.34
			c-6.91-11.81-19.72-19.74-34.39-19.74c-19.56,0-35.82,14.11-39.18,32.7c-0.22,0-0.43-0.02-0.65-0.02c-4.67,0-9.18,0.64-13.47,1.81
			c-7.02-6.21-16.25-9.98-26.36-9.98c-6.31,0-12.27,1.47-17.57,4.08c-2.05-20.08-19.01-35.74-39.62-35.74
			c-14.62,0-27.39,7.88-34.32,19.62c-7-3.09-14.73-4.82-22.88-4.82c-31.31,0-56.69,25.38-56.69,56.69c0,2.79,0.21,5.52,0.6,8.2
			c-21.41,0.67-38.56,18.23-38.56,39.8v279.83h893.97V157.28C839.14,127.58,815.06,103.5,785.36,103.5z"/>
		<path class="st3" d="M750.98,156.28c-15.21,0-29.45,4.17-41.64,11.42c-5.46-2.1-11.39-3.27-17.6-3.27
			c-14.02,0-26.66,5.9-35.6,15.34c-8.32-15.22-24.47-25.55-43.04-25.55c-17.27,0-32.45,8.94-41.18,22.44
			c-7.56-3.89-16.12-6.1-25.2-6.1c-20.05,0-37.59,10.7-47.24,26.69c-7.8-5.25-17.2-8.31-27.31-8.31c-4.46,0-8.77,0.61-12.87,1.72
			c-5.55-20.98-24.66-36.44-47.38-36.44c-12.56,0-24.01,4.73-32.68,12.49c-4.61-22.29-24.35-39.04-48-39.04
			c-23.04,0-42.36,15.9-47.61,37.32c-6.83-3.61-14.61-5.66-22.87-5.66c-4.5,0-8.84,0.62-12.98,1.75
			c-12.85-17.18-33.36-28.3-56.47-28.3c-25.01,0-46.96,13.04-59.47,32.68c-3.22-0.67-6.56-1.02-9.98-1.02
			c-8.7,0-16.87,2.28-23.95,6.25c-7.24-18.03-24.88-30.76-45.49-30.76c-23.22,0-42.65,16.15-47.72,37.82
			c-0.43-0.01-0.86-0.03-1.3-0.03c-27.07,0-49.02,21.95-49.02,49.02v244.09h878.3V237.96C832.66,192.85,796.09,156.28,750.98,156.28
			z"/>
		<path class="st4" d="M785.79,228.77c0-26.37-21.38-47.74-47.74-47.74c-21.13,0-39.04,13.73-45.33,32.75
			c-7.91,0.91-15.23,3.74-21.47,8.03c-5.25-10.84-16.35-18.31-29.2-18.31c-5.59,0-10.85,1.41-15.44,3.9
			c-5.11-11.19-16.39-18.97-29.5-18.97c-16.09,0-29.44,11.73-31.98,27.1c-5.94-7.34-15.03-12.04-25.21-12.04
			c-13.25,0-24.64,7.95-29.67,19.34c-3.49-1.28-7.25-1.98-11.18-1.98c-9.97,0-18.88,4.5-24.83,11.58
			c-7.28-7.16-17.26-11.58-28.28-11.58c-5.6,0-10.93,1.14-15.78,3.21c-4.74-12.04-16.46-20.57-30.18-20.57
			c-6.47,0-12.49,1.9-17.55,5.17c-4.82-11.86-16.45-20.23-30.05-20.23c-17.91,0-32.43,14.52-32.43,32.43
			c0,5.87,1.57,11.37,4.3,16.12l-0.2,0.12c-5.6-9.7-16.08-16.24-28.09-16.24c-0.29,0-0.58,0.01-0.86,0.02
			c0.56-2.39,0.86-4.87,0.86-7.43c0-17.91-14.52-32.43-32.43-32.43c-4.3,0-8.39,0.84-12.15,2.36c-5-11.46-16.43-19.47-29.73-19.47
			c-17.91,0-32.43,14.52-32.43,32.43c0,1.2,0.07,2.39,0.2,3.55c-4.43-2.27-9.44-3.55-14.75-3.55c-13.23,0-24.6,7.92-29.64,19.28
			c-4.51-1.41-9.3-2.17-14.27-2.17c-4.75,0-9.34,0.7-13.67,2c-5.95-7.29-15-11.95-25.14-11.95c-10.31,0-19.49,4.82-25.43,12.31
			c-5-11.45-16.42-19.46-29.72-19.46c-17.91,0-32.43,14.52-32.43,32.43c0,0.86,0.04,1.71,0.11,2.55c-3.88-1.64-8.14-2.55-12.62-2.55
			c-17.91,0-32.43,14.52-32.43,32.43v229.02h873.19l0.87-213.7C833.53,250.14,812.16,228.77,785.79,228.77z"/>
	</g>
</g>
</svg>
